# xmcd
#
# Track frame offsets: 
#        150
#        34717
#        53714
#        73874
#        101381
#        125620
#        151267
#        169089
#        187351
#        205757
#        226500
#        244924
#        262553
#        278041
#        294516
#        314546
#
# Disc length: 4414 seconds
#
# Revision: 1
# Processed by: cddbd v1.5.2PL0 Copyright (c) Steve Scherf et al.
# Submitted via: ExactAudioCopy v0.99pb4
#
DISCID=dd113c10
DTITLE=Various Artist - Tom Novy - GUDJ004 CD1
DYEAR=2010
DGENRE=House, Techno, Deep House, Tech House, Progressive House, Elect
DGENRE=r
TTITLE0=Marc Romboy vs Blake Baxter - Muzik
TTITLE1=Simon Garcia - Raw War
TTITLE2=Cyril Leger - So Sexy (Leix and Samu Remix)
TTITLE3=Pipah - Groovin'
TTITLE4=Robyn - Hang With Me (Kaiserdisco Remix)
TTITLE5=Coyu and Affkt - Nit Magica
TTITLE6=Osaze feat. Jaidene Veda - Sunday (Jimpster Remix)
TTITLE7=Shik Stylko feat. Tyree Cooper - Groove You Out Tonight (Funka
TTITLE7=genda's Dry Bagel Mix)
TTITLE8=Alex Font - Angola
TTITLE9=Orli and Marie - White Flower
TTITLE10=Casanovy - I Need Your Lovin' (Spencer Parker's A Gun For Hir
TTITLE10=e Remix)
TTITLE11=Mario Da Ragnio - Moom
TTITLE12=Technotronic feat. Felly - Pump Up The Jam (Sem Thomasson Rem
TTITLE12=ix)
TTITLE13=Solee and Joxe - Abundance
TTITLE14=Rasmus Faber and Alf Tumble feat. Candi Staton - Wilder Side (T
TTITLE14=ong and Rogers Wonderland Club Mix)
TTITLE15=Jerry Ropero - Dark Avenue
EXTD=
EXTT0=
EXTT1=
EXTT2=
EXTT3=
EXTT4=
EXTT5=
EXTT6=
EXTT7=
EXTT8=
EXTT9=
EXTT10=
EXTT11=
EXTT12=
EXTT13=
EXTT14=
EXTT15=
PLAYORDER=
